<?xml version="1.0" encoding="UTF-8" standalone="no"?>
<svg width="220px" height="48px" viewBox="0 0 220 48" version="1.1" xmlns="http://www.w3.org/2000/svg" xmlns:xlink="http://www.w3.org/1999/xlink">
    <!-- Generator: Sketch 40.3 (33839) - http://www.bohemiancoding.com/sketch -->
    <title>Group 12</title>
    <desc>Created with Sketch.</desc>
    <defs>
        <rect id="path-1" x="0" y="0" width="40" height="28"></rect>
        <path d="M4.3519,-8.0881 L5.9719,-5.9121 C7.0139,-4.5121 8.7399,-3.7971 10.4669,-4.0501 L13.1509,-4.4431 C16.2949,-4.9041 18.9949,-2.2041 18.5339,0.9399 L18.1409,3.6239 C17.8879,5.3509 18.6029,7.0769 20.0019,8.1189 L22.1789,9.7389 C24.7279,11.6359 24.7279,15.4539 22.1789,17.3519 L20.0019,18.9719 C18.6029,20.0139 17.8879,21.7399 18.1409,23.4669 L18.5339,26.1509 C18.9949,29.2949 16.2949,31.9949 13.1509,31.5339 L10.4669,31.1409 C8.7399,30.8869 7.0139,31.6029 5.9719,33.0019 L4.3519,35.1789 C2.4549,37.7279 -1.3641,37.7279 -3.2611,35.1789 L-4.8811,33.0019 C-5.9231,31.6029 -7.6491,30.8869 -9.3761,31.1409 L-12.0601,31.5339 C-15.2041,31.9949 -17.9041,29.2949 -17.4431,26.1509 L-17.0501,23.4669 C-16.7971,21.7399 -17.5121,20.0139 -18.9121,18.9719 L-21.0881,17.3519 C-23.6371,15.4539 -23.6371,11.6359 -21.0881,9.7389 L-18.9121,8.1189 C-17.5121,7.0769 -16.7971,5.3509 -17.0501,3.6239 L-17.4431,0.9399 C-17.9041,-2.2041 -15.2041,-4.9041 -12.0601,-4.4431 L-9.3761,-4.0501 C-7.6491,-3.7971 -5.9231,-4.5121 -4.8811,-5.9121 L-3.2611,-8.0881 C-1.3641,-10.6371 2.4549,-10.6371 4.3519,-8.0881" id="path-3"></path>
        <filter x="-50%" y="-50%" width="200%" height="200%" filterUnits="objectBoundingBox" id="filter-4">
            <feOffset dx="0" dy="0" in="SourceAlpha" result="shadowOffsetOuter1"></feOffset>
            <feGaussianBlur stdDeviation="4.5" in="shadowOffsetOuter1" result="shadowBlurOuter1"></feGaussianBlur>
            <feColorMatrix values="0 0 0 0 0.471540179   0 0 0 0 0.3445632   0 0 0 0 0.0643381446  0 0 0 1 0" type="matrix" in="shadowBlurOuter1"></feColorMatrix>
        </filter>
    </defs>
    <g id="Page-1" stroke="none" stroke-width="1" fill="none" fill-rule="evenodd">
        <g id="Group-12">
            <g id="Group-11" transform="translate(35.000000, 10.000000)">
                <g id="Group-3" transform="translate(0.000000, 0.090600)" fill="#FFC545">
                    <path d="M184.2643,2.3904 L177.3423,14.0854 C177.1173,14.4664 177.1173,14.9404 177.3423,15.3214 L184.2643,27.0164 C184.7433,27.8254 184.1603,28.8474 183.2203,28.8474 L1.8183,28.8474 C1.1483,28.8474 0.6053,28.3044 0.6053,27.6344 L0.6053,1.7724 C0.6053,1.1024 1.1483,0.5594 1.8183,0.5594 L183.2203,0.5594 C184.1603,0.5594 184.7433,1.5814 184.2643,2.3904" id="Fill-1"></path>
                </g>
                <path d="M26.11,17.349 L28.619,12.721 L28.619,19 L30.231,19 L30.231,9.9 L28.645,9.9 L25.616,15.399 L22.587,9.9 L21.001,9.9 L21.001,19 L22.613,19 L22.613,12.721 L25.122,17.349 L26.11,17.349 Z M38.434,15.633 C38.434,13.527 37.121,12.11 35.08,12.11 C33.039,12.11 31.726,13.527 31.726,15.633 C31.726,17.739 33.039,19.156 35.08,19.156 C37.121,19.156 38.434,17.739 38.434,15.633 L38.434,15.633 Z M36.874,15.633 C36.874,17.037 36.211,17.908 35.08,17.908 C33.949,17.908 33.286,17.037 33.286,15.633 C33.286,14.229 33.949,13.358 35.08,13.358 C36.211,13.358 36.874,14.229 36.874,15.633 L36.874,15.633 Z M43.14,13.358 C44.024,13.358 44.44,13.904 44.44,14.853 L44.44,19 L45.974,19 L45.974,14.632 C45.974,12.994 45.012,12.11 43.595,12.11 C42.62,12.11 41.853,12.526 41.333,13.046 L41.333,12.266 L39.799,12.266 L39.799,19 L41.333,19 L41.333,14.268 C41.697,13.8 42.386,13.358 43.14,13.358 L43.14,13.358 Z M53.839,15.672 C53.839,13.579 52.513,12.11 50.576,12.11 C48.6,12.11 47.287,13.592 47.287,15.633 C47.287,17.7 48.678,19.156 50.797,19.156 C51.941,19.156 52.903,18.675 53.54,17.817 L52.461,17.05 C52.019,17.596 51.46,17.908 50.784,17.908 C49.744,17.908 48.99,17.219 48.847,16.192 L53.813,16.192 C53.839,16.049 53.839,15.815 53.839,15.672 L53.839,15.672 Z M50.576,13.358 C51.499,13.358 52.214,13.995 52.292,15.022 L48.834,15.022 C48.977,13.982 49.614,13.358 50.576,13.358 L50.576,13.358 Z M56.179,21.756 L57.752,21.756 L61.249,12.266 L59.676,12.266 L57.96,16.959 L56.088,12.266 L54.515,12.266 L57.219,18.948 L56.179,21.756 Z M66.332,19 L69.777,19 C72.026,19 73.157,17.973 73.157,16.361 C73.157,15.282 72.546,14.463 71.428,14.203 C72.26,13.917 72.702,13.202 72.702,12.344 C72.702,10.914 71.61,9.9 69.582,9.9 L66.332,9.9 L66.332,19 Z M67.944,11.252 L69.478,11.252 C70.531,11.252 71.064,11.603 71.064,12.448 C71.064,13.293 70.531,13.644 69.478,13.644 L67.944,13.644 L67.944,11.252 Z M67.944,17.648 L67.944,14.996 L69.647,14.996 C70.96,14.996 71.519,15.438 71.519,16.322 C71.519,17.206 70.96,17.648 69.647,17.648 L67.944,17.648 Z M78.643,15.412 C78.123,15.009 77.499,14.762 76.667,14.762 C75.198,14.762 74.132,15.672 74.132,16.959 C74.132,18.246 75.198,19.156 76.667,19.156 C77.447,19.156 78.162,18.909 78.643,18.441 L78.643,19 L80.177,19 L80.177,15.035 C80.177,13.306 79.514,12.11 77.291,12.11 C76.264,12.11 75.289,12.448 74.509,13.111 L75.393,13.995 C75.9,13.579 76.498,13.371 77.109,13.371 C78.279,13.371 78.643,13.93 78.643,14.775 L78.643,15.412 Z M77.057,17.908 C76.225,17.908 75.692,17.596 75.692,16.959 C75.692,16.322 76.225,16.01 77.057,16.01 C77.668,16.01 78.214,16.218 78.643,16.608 L78.643,17.31 C78.227,17.713 77.642,17.908 77.057,17.908 L77.057,17.908 Z M81.49,15.633 C81.49,17.7 82.764,19.156 84.818,19.156 C86.157,19.156 87.158,18.532 87.756,17.518 L86.573,16.894 C86.144,17.544 85.65,17.908 84.883,17.908 C83.765,17.908 83.05,17.063 83.05,15.633 C83.05,14.203 83.765,13.358 84.883,13.358 C85.65,13.358 86.144,13.722 86.573,14.372 L87.756,13.748 C87.158,12.734 86.157,12.11 84.818,12.11 C82.764,12.11 81.49,13.566 81.49,15.633 L81.49,15.633 Z M88.965,9.51 L88.965,19 L90.499,19 L90.499,17.258 L91.656,15.932 L93.528,19 L95.218,19 L92.592,14.866 L94.88,12.266 L93.099,12.266 L90.499,15.269 L90.499,9.51 L88.965,9.51 Z M99.742,14.45 C99.742,17.232 101.575,19.156 104.201,19.156 C105.748,19.156 107.009,18.571 107.789,17.557 L107.789,14.112 L104.175,14.112 L104.175,15.464 L106.229,15.464 L106.229,16.972 C105.839,17.492 105.085,17.778 104.227,17.778 C102.628,17.778 101.38,16.582 101.38,14.45 C101.38,12.292 102.602,11.122 104.032,11.122 C105.137,11.122 105.865,11.564 106.424,12.422 L107.75,11.707 C106.996,10.472 105.735,9.744 103.98,9.744 C101.484,9.744 99.742,11.642 99.742,14.45 L99.742,14.45 Z M112.43,19.156 C114.289,19.156 115.511,18.194 115.511,16.166 L115.511,12.266 L113.977,12.266 L113.977,16.179 C113.977,17.349 113.314,17.908 112.43,17.908 C111.546,17.908 110.883,17.349 110.883,16.179 L110.883,12.266 L109.349,12.266 L109.349,16.166 C109.349,18.194 110.571,19.156 112.43,19.156 L112.43,19.156 Z M121.309,15.412 C120.789,15.009 120.165,14.762 119.333,14.762 C117.864,14.762 116.798,15.672 116.798,16.959 C116.798,18.246 117.864,19.156 119.333,19.156 C120.113,19.156 120.828,18.909 121.309,18.441 L121.309,19 L122.843,19 L122.843,15.035 C122.843,13.306 122.18,12.11 119.957,12.11 C118.93,12.11 117.955,12.448 117.175,13.111 L118.059,13.995 C118.566,13.579 119.164,13.371 119.775,13.371 C120.945,13.371 121.309,13.93 121.309,14.775 L121.309,15.412 Z M119.723,17.908 C118.891,17.908 118.358,17.596 118.358,16.959 C118.358,16.322 118.891,16.01 119.723,16.01 C120.334,16.01 120.88,16.218 121.309,16.608 L121.309,17.31 C120.893,17.713 120.308,17.908 119.723,17.908 L119.723,17.908 Z M128.524,12.136 C128.394,12.123 128.238,12.11 128.095,12.11 C127.198,12.11 126.522,12.474 126.067,13.085 L126.067,12.266 L124.533,12.266 L124.533,19 L126.067,19 L126.067,14.398 C126.457,13.787 127.185,13.384 127.978,13.384 C128.173,13.384 128.394,13.397 128.524,13.41 L128.524,12.136 Z M133.698,15.412 C133.178,15.009 132.554,14.762 131.722,14.762 C130.253,14.762 129.187,15.672 129.187,16.959 C129.187,18.246 130.253,19.156 131.722,19.156 C132.502,19.156 133.217,18.909 133.698,18.441 L133.698,19 L135.232,19 L135.232,15.035 C135.232,13.306 134.569,12.11 132.346,12.11 C131.319,12.11 130.344,12.448 129.564,13.111 L130.448,13.995 C130.955,13.579 131.553,13.371 132.164,13.371 C133.334,13.371 133.698,13.93 133.698,14.775 L133.698,15.412 Z M132.112,17.908 C131.28,17.908 130.747,17.596 130.747,16.959 C130.747,16.322 131.28,16.01 132.112,16.01 C132.723,16.01 133.269,16.218 133.698,16.608 L133.698,17.31 C133.282,17.713 132.697,17.908 132.112,17.908 L132.112,17.908 Z M140.263,13.358 C141.147,13.358 141.563,13.904 141.563,14.853 L141.563,19 L143.097,19 L143.097,14.632 C143.097,12.994 142.135,12.11 140.718,12.11 C139.743,12.11 138.976,12.526 138.456,13.046 L138.456,12.266 L136.922,12.266 L136.922,19 L138.456,19 L138.456,14.268 C138.82,13.8 139.509,13.358 140.263,13.358 L140.263,13.358 Z M147.608,19.156 C147.881,19.156 148.18,19.143 148.427,19.117 L148.427,17.895 C148.271,17.908 148.063,17.908 147.868,17.908 C147.062,17.908 146.815,17.557 146.815,16.803 L146.815,13.488 L148.427,13.488 L148.427,12.266 L146.815,12.266 L146.815,10.251 L145.281,10.251 L145.281,12.266 L144.098,12.266 L144.098,13.488 L145.281,13.488 L145.281,16.751 C145.281,18.441 145.983,19.156 147.608,19.156 L147.608,19.156 Z M155.837,15.672 C155.837,13.579 154.511,12.11 152.574,12.11 C150.598,12.11 149.285,13.592 149.285,15.633 C149.285,17.7 150.676,19.156 152.795,19.156 C153.939,19.156 154.901,18.675 155.538,17.817 L154.459,17.05 C154.017,17.596 153.458,17.908 152.782,17.908 C151.742,17.908 150.988,17.219 150.845,16.192 L155.811,16.192 C155.837,16.049 155.837,15.815 155.837,15.672 L155.837,15.672 Z M152.574,13.358 C153.497,13.358 154.212,13.995 154.29,15.022 L150.832,15.022 C150.975,13.982 151.612,13.358 152.574,13.358 L152.574,13.358 Z M163.377,15.672 C163.377,13.579 162.051,12.11 160.114,12.11 C158.138,12.11 156.825,13.592 156.825,15.633 C156.825,17.7 158.216,19.156 160.335,19.156 C161.479,19.156 162.441,18.675 163.078,17.817 L161.999,17.05 C161.557,17.596 160.998,17.908 160.322,17.908 C159.282,17.908 158.528,17.219 158.385,16.192 L163.351,16.192 C163.377,16.049 163.377,15.815 163.377,15.672 L163.377,15.672 Z M160.114,13.358 C161.037,13.358 161.752,13.995 161.83,15.022 L158.372,15.022 C158.515,13.982 159.152,13.358 160.114,13.358 L160.114,13.358 Z M168.109,9.798 L166.783,9.798 L166.913,11.774 L165.288,10.669 L164.612,11.826 L166.38,12.684 L164.612,13.555 L165.288,14.712 L166.913,13.607 L166.783,15.57 L168.109,15.57 L167.979,13.607 L169.604,14.712 L170.28,13.555 L168.512,12.684 L170.28,11.826 L169.604,10.669 L167.979,11.774 L168.109,9.798 Z" id="Money-Back-Guarantee" fill="#183643"></path>
                <polygon id="Line" fill="#183643" points="54.3964322 21.25 54.999 21.25 54.999 20 54.3964322 20 21.6025678 20 21 20 21 21.25 21.6025678 21.25"></polygon>
                <polygon id="Line-Copy" fill="#183643" points="163.500751 21.25 164.125 21.25 164.125 20 163.500751 20 60.6242488 20 60 20 60 21.25 60.6242488 21.25"></polygon>
            </g>
            <g id="Group-6" fill="#FFC545">
                <path d="M27.3519,2.8213 L28.9719,4.9973 C30.0139,6.3973 31.7399,7.1123 33.4669,6.8593 L36.1509,6.4663 C39.2949,6.0053 41.9949,8.7053 41.5339,11.8493 L41.1409,14.5333 C40.8879,16.2603 41.6029,17.9863 43.0019,19.0283 L45.1789,20.6483 C47.7279,22.5453 47.7279,26.3633 45.1789,28.2613 L43.0019,29.8813 C41.6029,30.9233 40.8879,32.6493 41.1409,34.3763 L41.5339,37.0603 C41.9949,40.2043 39.2949,42.9043 36.1509,42.4433 L33.4669,42.0503 C31.7399,41.7963 30.0139,42.5123 28.9719,43.9113 L27.3519,46.0883 C25.4549,48.6373 21.6359,48.6373 19.7389,46.0883 L18.1189,43.9113 C17.0769,42.5123 15.3509,41.7963 13.6239,42.0503 L10.9399,42.4433 C7.7959,42.9043 5.0959,40.2043 5.5569,37.0603 L5.9499,34.3763 C6.2029,32.6493 5.4879,30.9233 4.0879,29.8813 L1.9119,28.2613 C-0.6371,26.3633 -0.6371,22.5453 1.9119,20.6483 L4.0879,19.0283 C5.4879,17.9863 6.2029,16.2603 5.9499,14.5333 L5.5569,11.8493 C5.0959,8.7053 7.7959,6.0053 10.9399,6.4663 L13.6239,6.8593 C15.3509,7.1123 17.0769,6.3973 18.1189,4.9973 L19.7389,2.8213 C21.6359,0.2723 25.4549,0.2723 27.3519,2.8213" id="Fill-4"></path>
            </g>
            <g id="Group-7" transform="translate(23.000000, 11.000000)">
                <mask id="mask-2" fill="white">
                    <use xlink:href="#path-1"></use>
                </mask>
                <g id="Rectangle-3"></g>
                <g id="Fill-4" mask="url(#mask-2)">
                    <use fill="black" fill-opacity="1" filter="url(#filter-4)" xlink:href="#path-3"></use>
                    <use fill="#FFC545" fill-rule="evenodd" xlink:href="#path-3"></use>
                </g>
            </g>
            <path d="M23.786,37.264 C27.078,37.264 34.572,32.34 34.572,28.102 L34.572,17.488 C34.572,16.795 34.01,16.233 33.317,16.233 C33.317,16.233 28.39,15.726 23.786,14 C19.182,15.726 14.255,16.233 14.255,16.233 C13.562,16.233 13,16.795 13,17.488 L13,28.102 C13,32.34 20.493,37.264 23.786,37.264" id="Fill-7" fill="#4FC9FF"></path>
            <path d="M23.457,14.342 C18.898,16.009 14.196,16.506 13.995,16.526 L13.926,16.53 C13.603,16.53 13.341,16.793 13.341,17.115 L13.341,27.729 C13.341,31.596 20.599,36.221 23.457,36.221 C26.314,36.221 33.573,31.596 33.573,27.729 L33.573,17.115 C33.573,16.793 33.311,16.53 32.988,16.53 L32.919,16.526 C32.718,16.506 28.016,16.009 23.457,14.342 M23.457,37.561 C21.678,37.561 18.85,36.303 16.42,34.43 C13.611,32.266 12,29.824 12,27.729 L12,17.115 C12,16.067 12.843,15.211 13.886,15.19 C14.296,15.145 18.936,14.607 23.222,13 L23.692,13 C27.978,14.607 32.618,15.145 33.028,15.19 C34.071,15.211 34.914,16.067 34.914,17.115 L34.914,27.729 C34.914,29.824 33.303,32.266 30.494,34.43 C28.064,36.303 25.236,37.561 23.457,37.561" id="Fill-9" fill="#07A3E9"></path>
            <path d="M31.6165,22.37625 L29.2995,20.05925 C29.2205,19.98025 29.0915,19.98025 29.0125,20.05925 L22.1205,26.95225 L18.7405,23.57225 C18.5575,23.38925 18.2585,23.38925 18.0755,23.57225 L16.1365,25.51125 C15.9545,25.69425 15.9545,25.99325 16.1365,26.17625 L19.6595,29.69925 L21.7875,31.82725 L21.9765,32.01625 C22.0555,32.09525 22.1845,32.09525 22.2635,32.01625 L22.4525,31.82725 L22.5025,31.77825 L31.6165,22.66325 C31.6955,22.58425 31.6955,22.45525 31.6165,22.37625" id="Fill-11" fill="#FFFFFF"></path>
        </g>
    </g>
</svg>