<?xml version="1.0" encoding="utf-8"?>
<!-- Generator: Adobe Illustrator 21.0.2, SVG Export Plug-In . SVG Version: 6.00 Build 0)  -->
<!DOCTYPE svg PUBLIC "-//W3C//DTD SVG 1.1//EN" "http://www.w3.org/Graphics/SVG/1.1/DTD/svg11.dtd">
<svg version="1.1" id="Layer_1" xmlns="http://www.w3.org/2000/svg" xmlns:xlink="http://www.w3.org/1999/xlink" x="0px" y="0px"
	 width="189.6px" height="33.4px" viewBox="0 0 189.6 33.4" style="enable-background:new 0 0 189.6 33.4;" xml:space="preserve">
<style type="text/css">
	.st0{fill:#4FC9FF;}
	.st1{fill:#183643;}
</style>
<g>
	<path class="st0" d="M180.9,0.4c0.2,5.2,0.8,6.8,2.6,6.8c1.1,0,2.8-0.6,5.5-2.1l0.3,0.6c-2.9,1.8-4.9,3.3-4.9,4.7
		c0,1.4,1.9,2.9,4.9,4.7l-0.3,0.6c-2.8-1.5-4.4-2.1-5.5-2.1c-1.8,0-2.5,1.7-2.6,6.8h-0.7c-0.2-5.2-0.8-6.8-2.6-6.8
		c-1.1,0-2.8,0.6-5.5,2.1l-0.3-0.6c2.9-1.8,4.9-3.3,4.9-4.7c0-1.4-1.9-2.9-4.9-4.7l0.3-0.6c2.8,1.5,4.4,2.1,5.5,2.1
		c1.8,0,2.5-1.7,2.6-6.8H180.9z"/>
	<g>
		<g>
			<path class="st1" d="M55.8,33V8.3h3.6v2.8l0.7-0.7c1.3-1.4,3.2-2.1,5.1-2.1c4.5,0,8,3.9,8,8.8c0,5-3.5,8.9-8,8.9
				c-1.8,0-3.6-0.7-4.9-2l-0.7-0.7v6.4c0,0,0,1.2-1,2.3C57.5,33.2,55.8,33,55.8,33z M64.5,11.8c-2.7,0-4.9,2.4-4.9,5.4
				c0,3,2.2,5.4,4.9,5.4c2.8,0,4.9-2.4,4.9-5.4C69.5,14.1,67.3,11.8,64.5,11.8z"/>
		</g>
		<g>
			<path class="st1" d="M127.4,25.8c-3.4,0-6.9-1.7-6.9-5.4c0-3.1,2-4.6,7-5c3.1-0.3,5.5-0.7,5.5-2.5c0-1.3-1.5-2.1-3.7-2.1
				c-1.6,0-3.6,0.7-4.2,2.3h-3.8c0.7-3.1,3.8-5.1,7.9-5.1c6.9,0,7.4,4.4,7.4,5.7V23c0,0.7,0.2,1.7,0.4,2.5c0,0-1.7,0.4-2.8-0.4
				c-1-0.8-1.1-1.7-1.1-1.7l-0.6,0.6C131.4,25.2,129.7,25.8,127.4,25.8z M132.5,16.9c-0.8,0.5-2.1,0.9-4.2,1.1c-2.1,0.2-4,0.7-4,2.5
				c0,1.3,1.4,2.1,3.4,2.1c3.4,0,5.4-1.4,5.4-3.6v-2.4L132.5,16.9z"/>
		</g>
		<g>
			<path class="st1" d="M42.9,25.8c-3.4,0-6.9-1.7-6.9-5.4c0-3.1,2-4.6,7-5c3.1-0.3,5.5-0.7,5.5-2.5c0-1.3-1.5-2.1-3.7-2.1
				c-1.6,0-3.6,0.7-4.2,2.3h-3.8c0.7-3.1,3.8-5.1,7.9-5.1c6.9,0,7.4,4.4,7.4,5.7V23c0,0.7,0.2,1.7,0.4,2.5c0,0-1.7,0.4-2.8-0.4
				c-1-0.8-1.1-1.7-1.1-1.7l-0.6,0.6C47,25.2,45.2,25.8,42.9,25.8z M48.1,16.9c-0.8,0.5-2.1,0.9-4.2,1.1c-2.1,0.2-4,0.7-4,2.5
				c0,1.3,1.4,2.1,3.4,2.1c3.4,0,5.4-1.4,5.4-3.6v-2.4L48.1,16.9z"/>
		</g>
		<g>
			<path class="st1" d="M84.6,25.9c-4.8,0-8.8-4-8.8-9c0-5,3.9-9,8.8-9c2.5,0,4.8,1,6.3,2.7c1.7,1.9,2.5,4.6,2.3,7.7H79.5l0.1,0.5
				c0.6,2.4,2.5,3.9,4.9,3.9c1.7,0,3.2-0.8,4-2.1h4.1C91.5,23.9,88.5,25.9,84.6,25.9z M84.5,11.1c-2.2,0-4.1,1.4-4.8,3.7l-0.2,0.5
				h10l-0.1-0.5C88.8,12.6,86.9,11.1,84.5,11.1z"/>
		</g>
		<g>
			<path class="st1" d="M163.6,26.1c-3.5,0-6.2-1.2-7.6-2.3l2.9-2.2c1,0.7,2.4,1.1,4,1.2c0.2,0,0.5,0,0.7,0c2.3,0,3-0.9,3.2-1.4
				c0.2-0.5,0.1-1.2-0.2-1.5c-0.6-0.7-1.5-0.8-3.1-1l-0.5-0.1c-5.5-0.8-6.3-3.6-6.3-5.2c0-1,0.4-4.1,4.9-5.2
				c0.8-0.2,1.5-0.3,2.3-0.3c2.9,0,5.7,1.5,6.9,2.4l-2.8,2.1c-1-0.7-2.7-1.4-4.3-1.4c-1.1,0-2,0.4-2.5,1c-0.3,0.4-0.4,0.9-0.2,1.3
				c0.4,0.8,1.5,1.4,3.3,1.6c1.6,0.2,3.5,0.6,4.9,1.5c1.3,0.9,2,2.4,1.9,4.2c-0.1,1.6-2.1,5-7.3,5L163.6,26.1z"/>
		</g>
		<g>
			<path class="st1" d="M7.8,26.1c-3.5,0-6.2-1.2-7.6-2.3l2.9-2.2c1,0.7,2.4,1.1,4,1.2c0.2,0,0.5,0,0.7,0c2.3,0,3-0.9,3.2-1.4
				c0.2-0.5,0.1-1.2-0.2-1.5c-0.6-0.7-1.5-0.8-3.1-1l-0.5-0.1c-5.5-0.8-6.3-3.6-6.3-5.2c0-1,0.4-4.1,4.9-5.2C6.4,8.2,7.2,8.1,8,8.1
				c2.9,0,5.7,1.5,6.9,2.4L12,12.7c-1-0.7-2.7-1.4-4.3-1.4c-1.1,0-2,0.4-2.5,1c-0.3,0.4-0.4,0.9-0.2,1.3c0.4,0.8,1.5,1.4,3.3,1.6
				c1.6,0.2,3.5,0.6,4.9,1.5c1.3,0.9,2,2.4,1.9,4.2c-0.1,1.6-2.1,5-7.3,5L7.8,26.1z"/>
		</g>
		<g>
			<polygon class="st1" points="115.9,8.4 112.3,19.7 108.7,8.3 105,8.3 105,8.4 105,8.4 101.3,19.7 97.7,8.3 94,8.3 99.5,25.5 
				99.5,25.5 99.5,25.5 103.2,25.5 106.8,14.2 110.4,25.5 110.4,25.5 110.4,25.5 114.2,25.5 119.7,8.4 			"/>
		</g>
		<g>
			<path class="st1" d="M29.6,25.5V15.4c0-0.9-0.3-3.8-3.7-3.8c-2.3,0-3.9,1.6-3.9,3.8v10.1h-3.8V1.9c0,0,1.5-0.1,2.7,1.1
				c1.2,1.2,1.1,2.7,1.1,2.7v4l0.6-0.5c1.1-0.9,2.5-1.3,3.9-1.3c4.1,0,6.9,3,6.9,7.5v10.1H29.6z"/>
		</g>
		<g>
			<path class="st1" d="M151.3,8.3l-4.5,12.4l-4.8-12.4h-4l7.1,17.2l-1,2.8c0,0-0.6,1.4,0.2,3c0.8,1.5,1.9,1.8,1.9,1.8l9.2-24.9
				H151.3z"/>
		</g>
	</g>
</g>
</svg>
